# ProBuilder 5.0.3
# https://unity3d.com/unity/features/worldbuilding/probuilder
# 23.05.2022 18:48:34

mtllib ./Pipe_(2).mtl
o Pipe (2)

g Pipe (2)
v -5.72304 0 -2.497627
v -5.753819 0 -2.888713
v -5.72304 0.4578552 -2.497627
v -5.753819 0.4578552 -2.888713
v -5.533819 0 -2.888713
v -5.505749 0 -2.532043
v -5.533819 0.4578552 -2.888713
v -5.505749 0.4578552 -2.532043
v -5.631461 0 -2.116171
v -5.631461 0.4578552 -2.116171
v -5.422228 0 -2.184155
v -5.422228 0.4578552 -2.184155
v -5.481336 0 -1.753737
v -5.481336 0.4578552 -1.753737
v -5.285315 0 -1.853615
v -5.285315 0.4578552 -1.853615
v -5.276361 0 -1.41925
v -5.276361 0.4578552 -1.41925
v -5.098378 0 -1.548563
v -5.098378 0.4578552 -1.548563
v -5.021586 0 -1.120946
v -5.021586 0.4578552 -1.120946
v -4.866023 0 -1.27651
v -4.866023 0.4578552 -1.27651
v -4.723282 0 -0.8661706
v -4.723282 0.4578552 -0.8661706
v -4.59397 0 -1.044154
v -4.59397 0.4578552 -1.044154
v -4.388795 0 -0.6611967
v -4.388795 0.4578552 -0.6611967
v -4.288918 0 -0.857218
v -4.288918 0.4578552 -0.857218
v -4.026361 0 -0.5110717
v -4.026361 0.4578552 -0.5110717
v -3.958378 0 -0.720304
v -3.958378 0.4578552 -0.720304
v -3.644906 0 -0.4194922
v -3.644906 0.4578552 -0.4194922
v -3.61049 0 -0.6367836
v -3.61049 0.4578552 -0.6367836
v -3.253819 0 -0.3887131
v -3.253819 0.4578552 -0.3887131
v -3.253819 0 -0.6087132
v -3.253819 0.4578552 -0.6087132
v -2.862733 0 -0.4194922
v -2.862733 0.4578552 -0.4194922
v -2.897149 0 -0.6367836
v -2.897149 0.4578552 -0.6367836
v -2.481277 0 -0.5110717
v -2.481277 0.4578552 -0.5110717
v -2.549261 0 -0.720304
v -2.549261 0.4578552 -0.720304
v -2.118843 0 -0.6611967
v -2.118843 0.4578552 -0.6611967
v -2.218721 0 -0.8572183
v -2.218721 0.4578552 -0.8572183
v -1.784356 0 -0.8661706
v -1.784356 0.4578552 -0.8661706
v -1.913669 0 -1.044154
v -1.913669 0.4578552 -1.044154
v -1.486052 0 -1.120946
v -1.486052 0.4578552 -1.120946
v -1.641616 0 -1.27651
v -1.641616 0.4578552 -1.27651
v -1.231277 0 -1.41925
v -1.231277 0.4578552 -1.41925
v -1.40926 0 -1.548563
v -1.40926 0.4578552 -1.548563
v -1.026303 0 -1.753737
v -1.026303 0.4578552 -1.753737
v -1.222324 0 -1.853615
v -1.222324 0.4578552 -1.853615
v -0.876178 0 -2.11617
v -0.876178 0.4578552 -2.11617
v -1.08541 0 -2.184154
v -1.08541 0.4578552 -2.184154
v -0.7845984 0 -2.497627
v -0.7845984 0.4578552 -2.497627
v -1.00189 0 -2.532043
v -1.00189 0.4578552 -2.532043
v -0.7538192 0 -2.888713
v -0.7538192 0.4578552 -2.888713
v -0.9738193 0 -2.888713
v -0.9738193 0.4578552 -2.888713
v -0.7845984 0 -3.279799
v -0.7845984 0.4578552 -3.279799
v -1.00189 0 -3.245384
v -1.00189 0.4578552 -3.245384
v -0.8761778 0 -3.661256
v -0.8761778 0.4578552 -3.661256
v -1.08541 0 -3.593272
v -1.08541 0.4578552 -3.593272
v -1.026303 0 -4.023689
v -1.026303 0.4578552 -4.023689
v -1.222324 0 -3.923811
v -1.222324 0.4578552 -3.923811
v -1.231277 0 -4.358176
v -1.231277 0.4578552 -4.358176
v -1.40926 0 -4.228863
v -1.40926 0.4578552 -4.228863
v -1.486052 0 -4.65648
v -1.486052 0.4578552 -4.65648
v -1.641616 0 -4.500916
v -1.641616 0.4578552 -4.500916
v -1.784356 0 -4.911255
v -1.784356 0.4578552 -4.911255
v -1.913668 0 -4.733272
v -1.913668 0.4578552 -4.733272
v -2.118843 0 -5.116229
v -2.118843 0.4578552 -5.116229
v -2.21872 0 -4.920208
v -2.21872 0.4578552 -4.920208
v -2.481277 0 -5.266355
v -2.481277 0.4578552 -5.266355
v -2.54926 0 -5.057122
v -2.54926 0.4578552 -5.057122
v -2.862733 0 -5.357934
v -2.862733 0.4578552 -5.357934
v -2.897149 0 -5.140642
v -2.897149 0.4578552 -5.140642
v -3.253819 0 -5.388713
v -3.253819 0.4578552 -5.388713
v -3.253819 0 -5.168713
v -3.253819 0.4578552 -5.168713
v -3.644906 0 -5.357934
v -3.644906 0.4578552 -5.357934
v -3.61049 0 -5.140642
v -3.61049 0.4578552 -5.140642
v -4.026362 0 -5.266355
v -4.026362 0.4578552 -5.266355
v -3.958378 0 -5.057122
v -3.958378 0.4578552 -5.057122
v -4.388795 0 -5.11623
v -4.388795 0.4578552 -5.11623
v -4.288917 0 -4.920208
v -4.288917 0.4578552 -4.920208
v -4.723282 0 -4.911256
v -4.723282 0.4578552 -4.911256
v -4.593969 0 -4.733272
v -4.593969 0.4578552 -4.733272
v -5.021586 0 -4.65648
v -5.021586 0.4578552 -4.65648
v -4.866022 0 -4.500917
v -4.866022 0.4578552 -4.500917
v -5.276361 0 -4.358176
v -5.276361 0.4578552 -4.358176
v -5.098378 0 -4.228864
v -5.098378 0.4578552 -4.228864
v -5.481336 0 -4.023689
v -5.481336 0.4578552 -4.023689
v -5.285315 0 -3.923811
v -5.285315 0.4578552 -3.923811
v -5.631461 0 -3.661255
v -5.631461 0.4578552 -3.661255
v -5.422228 0 -3.593272
v -5.422228 0.4578552 -3.593272
v -5.72304 0 -3.279799
v -5.72304 0.4578552 -3.279799
v -5.505749 0 -3.245384
v -5.505749 0.4578552 -3.245384

vt -2.938955 0
vt -3.331251 0
vt -2.938955 0.4578552
vt -3.331251 0.4578552
vt 3.313984 0
vt 2.956211 0
vt 3.313984 0.4578552
vt 2.956211 0.4578552
vt -3.372337 0
vt -3.764633 0
vt -3.372337 0.4578552
vt -3.764633 0.4578552
vt 3.747372 0
vt 3.389599 0
vt 3.747372 0.4578552
vt 3.389599 0.4578552
vt -3.717858 0
vt -4.110154 0
vt -3.717858 0.4578552
vt -4.110154 0.4578552
vt 4.09289 0
vt 3.735116 0
vt 4.09289 0.4578552
vt 3.735116 0.4578552
vt -3.967004 0
vt -4.3593 0
vt -3.967004 0.4578552
vt -4.3593 0.4578552
vt 4.342038 0
vt 3.984264 0
vt 4.342038 0.4578552
vt 3.984264 0.4578552
vt -4.113631 0
vt -4.505926 0
vt -4.113631 0.4578552
vt -4.505926 0.4578552
vt 4.48867 0
vt 4.130896 0
vt 4.48867 0.4578552
vt 4.130896 0.4578552
vt -4.154146 0
vt -4.546442 0
vt -4.154146 0.4578552
vt -4.546442 0.4578552
vt 4.529178 0
vt 4.171405 0
vt 4.529178 0.4578552
vt 4.171405 0.4578552
vt -4.087538 0
vt -4.479833 0
vt -4.087538 0.4578552
vt -4.479833 0.4578552
vt 4.462572 0
vt 4.104798 0
vt 4.462572 0.4578552
vt 4.104798 0.4578552
vt -3.915452 0
vt -4.307747 0
vt -3.915452 0.4578552
vt -4.307747 0.4578552
vt 4.290486 0
vt 3.932713 0
vt 4.290486 0.4578552
vt 3.932713 0.4578552
vt -3.642125 0
vt -4.03442 0
vt -3.642125 0.4578552
vt -4.03442 0.4578552
vt 4.017159 0
vt 3.659386 0
vt 4.017159 0.4578552
vt 3.659386 0.4578552
vt -3.274287 0
vt -3.666583 0
vt -3.274287 0.4578552
vt -3.666583 0.4578552
vt 3.649321 0
vt 3.291548 0
vt 3.649321 0.4578552
vt 3.291548 0.4578552
vt -2.820995 0
vt -3.213291 0
vt -2.820995 0.4578552
vt -3.213291 0.4578552
vt 3.19603 0
vt 2.838256 0
vt 3.19603 0.4578552
vt 2.838256 0.4578552
vt -2.293412 0
vt -2.685707 0
vt -2.293412 0.4578552
vt -2.685707 0.4578552
vt 2.668446 0
vt 2.310673 0
vt 2.668446 0.4578552
vt 2.310673 0.4578552
vt -1.704527 0
vt -2.096823 0
vt -1.704527 0.4578552
vt -2.096823 0.4578552
vt 2.07956 0
vt 1.721787 0
vt 2.07956 0.4578552
vt 1.721787 0.4578552
vt -1.068841 0
vt -1.461136 0
vt -1.068841 0.4578552
vt -1.461136 0.4578552
vt 1.443875 0
vt 1.086102 0
vt 1.443875 0.4578552
vt 1.086102 0.4578552
vt -0.4020071 0
vt -0.7943027 0
vt -0.4020071 0.4578552
vt -0.7943027 0.4578552
vt 0.777042 0
vt 0.4192685 0
vt 0.777042 0.4578552
vt 0.4192685 0.4578552
vt 0.2795557 0
vt -0.1127401 0
vt 0.2795557 0.4578552
vt -0.1127401 0.4578552
vt 0.09547894 0
vt -0.2622948 0
vt 0.09547894 0.4578552
vt -0.2622948 0.4578552
vt 0.9590653 0
vt 0.5667703 0
vt 0.9590653 0.4578552
vt 0.5667703 0.4578552
vt -0.5840309 0
vt -0.9418041 0
vt -0.5840309 0.4578552
vt -0.9418041 0.4578552
vt 1.619787 0
vt 1.227492 0
vt 1.619787 0.4578552
vt 1.227492 0.4578552
vt -1.244753 0
vt -1.602527 0
vt -1.244753 0.4578552
vt -1.602527 0.4578552
vt 2.245456 0
vt 1.853161 0
vt 2.245456 0.4578552
vt 1.853161 0.4578552
vt -1.870422 0
vt -2.228195 0
vt -1.870422 0.4578552
vt -2.228195 0.4578552
vt 2.820665 0
vt 2.428369 0
vt 2.820665 0.4578552
vt 2.428369 0.4578552
vt -2.44563 0
vt -2.803404 0
vt -2.44563 0.4578552
vt -2.803404 0.4578552
vt 3.331247 0
vt 2.938952 0
vt 3.331247 0.4578552
vt 2.938952 0.4578552
vt -2.956213 0
vt -3.313986 0
vt -2.956213 0.4578552
vt -3.313986 0.4578552
vt 3.764634 0
vt 3.372339 0
vt 3.764634 0.4578552
vt 3.372339 0.4578552
vt -3.3896 0
vt -3.747373 0
vt -3.3896 0.4578552
vt -3.747373 0.4578552
vt 4.110153 0
vt 3.717858 0
vt 4.110153 0.4578552
vt 3.717858 0.4578552
vt -3.735119 0
vt -4.092892 0
vt -3.735119 0.4578552
vt -4.092892 0.4578552
vt 4.359297 0
vt 3.967001 0
vt 4.359297 0.4578552
vt 3.967001 0.4578552
vt -3.984262 0
vt -4.342035 0
vt -3.984262 0.4578552
vt -4.342035 0.4578552
vt 4.505928 0
vt 4.113632 0
vt 4.505928 0.4578552
vt 4.113632 0.4578552
vt -4.130895 0
vt -4.488668 0
vt -4.130895 0.4578552
vt -4.488668 0.4578552
vt 4.546439 0
vt 4.154143 0
vt 4.546439 0.4578552
vt 4.154143 0.4578552
vt -4.171407 0
vt -4.52918 0
vt -4.171407 0.4578552
vt -4.52918 0.4578552
vt 4.479835 0
vt 4.087539 0
vt 4.479835 0.4578552
vt 4.087539 0.4578552
vt -4.1048 0
vt -4.462574 0
vt -4.1048 0.4578552
vt -4.462574 0.4578552
vt 4.307752 0
vt 3.915456 0
vt 4.307752 0.4578552
vt 3.915456 0.4578552
vt -3.932715 0
vt -4.290488 0
vt -3.932715 0.4578552
vt -4.290488 0.4578552
vt 4.034419 0
vt 3.642123 0
vt 4.034419 0.4578552
vt 3.642123 0.4578552
vt -3.659378 0
vt -4.017151 0
vt -3.659378 0.4578552
vt -4.017151 0.4578552
vt 3.666579 0
vt 3.274283 0
vt 3.666579 0.4578552
vt 3.274283 0.4578552
vt -3.291552 0
vt -3.649326 0
vt -3.291552 0.4578552
vt -3.649326 0.4578552
vt 3.213295 0
vt 3.213295 0.4578552
vt -2.838251 0
vt -3.196025 0
vt -2.838251 0.4578552
vt -3.196025 0.4578552
vt 2.685709 0
vt 2.293414 0
vt 2.685709 0.4578552
vt 2.293414 0.4578552
vt -2.310684 0
vt -2.668458 0
vt -2.310684 0.4578552
vt -2.668458 0.4578552
vt 2.096823 0
vt 1.704528 0
vt 2.096823 0.4578552
vt 1.704528 0.4578552
vt -1.721778 0
vt -2.079551 0
vt -1.721778 0.4578552
vt -2.079551 0.4578552
vt 1.461131 0
vt 1.068836 0
vt 1.461131 0.4578552
vt 1.068836 0.4578552
vt -1.086107 0
vt -1.443881 0
vt -1.086107 0.4578552
vt -1.443881 0.4578552
vt 0.7943047 0
vt 0.4020091 0
vt 0.7943047 0.4578552
vt 0.4020091 0.4578552
vt -0.4192657 0
vt -0.7770389 0
vt -0.4192657 0.4578552
vt -0.7770389 0.4578552
vt 0.1127366 0
vt -0.2795591 0
vt 0.1127366 0.4578552
vt -0.2795591 0.4578552
vt 0.2622866 0
vt -0.09548753 0
vt 0.2622866 0.4578552
vt -0.09548753 0.4578552
vt -0.5667647 0
vt -0.9590604 0
vt -0.5667647 0.4578552
vt -0.9590604 0.4578552
vt 0.9418023 0
vt 0.5840285 0
vt 0.9418023 0.4578552
vt 0.5840285 0.4578552
vt -1.227492 0
vt -1.619788 0
vt -1.227492 0.4578552
vt -1.619788 0.4578552
vt 1.602531 0
vt 1.244758 0
vt 1.602531 0.4578552
vt 1.244758 0.4578552
vt -1.853163 0
vt -2.245458 0
vt -1.853163 0.4578552
vt -2.245458 0.4578552
vt 2.228198 0
vt 1.870424 0
vt 2.228198 0.4578552
vt 1.870424 0.4578552
vt -2.428365 0
vt -2.428365 0.4578552
vt 2.803405 0
vt 2.445632 0
vt 2.803405 0.4578552
vt 2.445632 0.4578552
vt -5.753819 -2.888713
vt -5.72304 -2.497627
vt -5.533819 -2.888713
vt -5.505749 -2.532043
vt 5.72304 -2.497627
vt 5.753819 -2.888713
vt 5.505749 -2.532043
vt 5.533819 -2.888713
vt -5.631461 -2.116171
vt -5.422228 -2.184155
vt 5.631461 -2.116171
vt 5.422228 -2.184155
vt -5.481336 -1.753737
vt -5.285315 -1.853615
vt 5.481336 -1.753737
vt 5.285315 -1.853615
vt -5.276361 -1.41925
vt -5.098378 -1.548563
vt 5.276361 -1.41925
vt 5.098378 -1.548563
vt -5.021586 -1.120946
vt -4.866023 -1.27651
vt 5.021586 -1.120946
vt 4.866023 -1.27651
vt -4.723282 -0.8661706
vt -4.59397 -1.044154
vt 4.723282 -0.8661706
vt 4.59397 -1.044154
vt -4.388795 -0.6611967
vt -4.288918 -0.857218
vt 4.388795 -0.6611967
vt 4.288918 -0.857218
vt -4.026361 -0.5110717
vt -3.958378 -0.720304
vt 4.026361 -0.5110717
vt 3.958378 -0.720304
vt -3.644906 -0.4194922
vt -3.61049 -0.6367836
vt 3.644906 -0.4194922
vt 3.61049 -0.6367836
vt -3.253819 -0.3887131
vt -3.253819 -0.6087132
vt 3.253819 -0.3887131
vt 3.253819 -0.6087132
vt -2.862733 -0.4194922
vt -2.897149 -0.6367836
vt 2.862733 -0.4194922
vt 2.897149 -0.6367836
vt -2.481277 -0.5110717
vt -2.549261 -0.720304
vt 2.481277 -0.5110717
vt 2.549261 -0.720304
vt -2.118843 -0.6611967
vt -2.218721 -0.8572183
vt 2.118843 -0.6611967
vt 2.218721 -0.8572183
vt -1.784356 -0.8661706
vt -1.913669 -1.044154
vt 1.784356 -0.8661706
vt 1.913669 -1.044154
vt -1.486052 -1.120946
vt -1.641616 -1.27651
vt 1.486052 -1.120946
vt 1.641616 -1.27651
vt -1.231277 -1.41925
vt -1.40926 -1.548563
vt 1.231277 -1.41925
vt 1.40926 -1.548563
vt -1.026303 -1.753737
vt -1.222324 -1.853615
vt 1.026303 -1.753737
vt 1.222324 -1.853615
vt -0.876178 -2.11617
vt -1.08541 -2.184154
vt 0.876178 -2.11617
vt 1.08541 -2.184154
vt -0.7845984 -2.497627
vt -1.00189 -2.532043
vt 0.7845984 -2.497627
vt 1.00189 -2.532043
vt -0.7538192 -2.888713
vt -0.9738193 -2.888713
vt 0.7538192 -2.888713
vt 0.9738193 -2.888713
vt -0.7845984 -3.279799
vt -1.00189 -3.245384
vt 0.7845984 -3.279799
vt 1.00189 -3.245384
vt -0.8761778 -3.661256
vt -1.08541 -3.593272
vt 0.8761778 -3.661256
vt 1.08541 -3.593272
vt -1.026303 -4.023689
vt -1.222324 -3.923811
vt 1.026303 -4.023689
vt 1.222324 -3.923811
vt -1.231277 -4.358176
vt -1.40926 -4.228863
vt 1.231277 -4.358176
vt 1.40926 -4.228863
vt -1.486052 -4.65648
vt -1.641616 -4.500916
vt 1.486052 -4.65648
vt 1.641616 -4.500916
vt -1.784356 -4.911255
vt -1.913668 -4.733272
vt 1.784356 -4.911255
vt 1.913668 -4.733272
vt -2.118843 -5.116229
vt -2.21872 -4.920208
vt 2.118843 -5.116229
vt 2.21872 -4.920208
vt -2.481277 -5.266355
vt -2.54926 -5.057122
vt 2.481277 -5.266355
vt 2.54926 -5.057122
vt -2.862733 -5.357934
vt -2.897149 -5.140642
vt 2.862733 -5.357934
vt 2.897149 -5.140642
vt -3.253819 -5.388713
vt -3.253819 -5.168713
vt 3.253819 -5.388713
vt 3.253819 -5.168713
vt -3.644906 -5.357934
vt -3.61049 -5.140642
vt 3.644906 -5.357934
vt 3.61049 -5.140642
vt -4.026362 -5.266355
vt -3.958378 -5.057122
vt 4.026362 -5.266355
vt 3.958378 -5.057122
vt -4.388795 -5.11623
vt -4.288917 -4.920208
vt 4.388795 -5.11623
vt 4.288917 -4.920208
vt -4.723282 -4.911256
vt -4.593969 -4.733272
vt 4.723282 -4.911256
vt 4.593969 -4.733272
vt -5.021586 -4.65648
vt -4.866022 -4.500917
vt 5.021586 -4.65648
vt 4.866022 -4.500917
vt -5.276361 -4.358176
vt -5.098378 -4.228864
vt 5.276361 -4.358176
vt 5.098378 -4.228864
vt -5.481336 -4.023689
vt -5.285315 -3.923811
vt 5.481336 -4.023689
vt 5.285315 -3.923811
vt -5.631461 -3.661255
vt -5.422228 -3.593272
vt 5.631461 -3.661255
vt 5.422228 -3.593272
vt -5.72304 -3.279799
vt -5.505749 -3.245384
vt 5.72304 -3.279799
vt 5.505749 -3.245384

vn -0.9876883 0 0.1564346
vn -1 0 -2.242086E-08
vn 1 0 2.989448E-08
vn 0.9876884 0 -0.1564341
vn -0.9510566 0 0.3090169
vn 0.9510567 0 -0.3090165
vn -0.8910064 0 0.4539909
vn 0.8910065 0 -0.4539905
vn -0.8090171 0 0.5877851
vn 0.8090167 0 -0.5877857
vn -0.707107 0 0.7071066
vn 0.7071067 0 -0.7071068
vn -0.5877851 0 0.8090171
vn 0.5877855 0 -0.8090168
vn -0.4539905 0 0.8910065
vn 0.4539905 0 -0.8910065
vn -0.3090169 0 0.9510565
vn 0.3090168 0 -0.9510566
vn -0.1564344 0 0.9876884
vn 0.1564341 0 -0.9876884
vn 2.242086E-08 0 1
vn 0 0 -1
vn 0.1564343 0 0.9876884
vn -0.1564341 0 -0.9876884
vn 0.3090169 0 0.9510566
vn -0.3090171 0 -0.9510565
vn 0.4539906 0 0.8910065
vn -0.4539908 0 -0.8910064
vn 0.5877853 0 0.809017
vn -0.5877852 0 -0.8090171
vn 0.7071066 0 0.7071069
vn -0.7071066 0 -0.707107
vn 0.8090171 0 0.5877852
vn -0.8090171 0 -0.5877852
vn 0.8910066 0 0.4539904
vn -0.8910065 0 -0.4539904
vn 0.9510565 0 0.3090171
vn -0.9510565 0 -0.3090171
vn 0.9876883 0 0.1564345
vn -0.9876884 0 -0.1564344
vn 0 -1 0
vn 0 1 0

usemtl ProBuilderDefault
f 3/3/1 4/4/2 2/2/2 1/1/1
f 7/7/3 8/8/4 6/6/4 5/5/3
f 10/11/5 3/12/1 1/10/1 9/9/5
f 8/15/4 12/16/6 11/14/6 6/13/4
f 14/19/7 10/20/5 9/18/5 13/17/7
f 12/23/6 16/24/8 15/22/8 11/21/6
f 18/27/9 14/28/7 13/26/7 17/25/9
f 16/31/8 20/32/10 19/30/10 15/29/8
f 22/35/11 18/36/9 17/34/9 21/33/11
f 20/39/10 24/40/12 23/38/12 19/37/10
f 26/43/13 22/44/11 21/42/11 25/41/13
f 24/47/12 28/48/14 27/46/14 23/45/12
f 30/51/15 26/52/13 25/50/13 29/49/15
f 28/55/14 32/56/16 31/54/16 27/53/14
f 34/59/17 30/60/15 29/58/15 33/57/17
f 32/63/16 36/64/18 35/62/18 31/61/16
f 38/67/19 34/68/17 33/66/17 37/65/19
f 36/71/18 40/72/20 39/70/20 35/69/18
f 42/75/21 38/76/19 37/74/19 41/73/21
f 40/79/20 44/80/22 43/78/22 39/77/20
f 46/83/23 42/84/21 41/82/21 45/81/23
f 44/87/22 48/88/24 47/86/24 43/85/22
f 50/91/25 46/92/23 45/90/23 49/89/25
f 48/95/24 52/96/26 51/94/26 47/93/24
f 54/99/27 50/100/25 49/98/25 53/97/27
f 52/103/26 56/104/28 55/102/28 51/101/26
f 58/107/29 54/108/27 53/106/27 57/105/29
f 56/111/28 60/112/30 59/110/30 55/109/28
f 62/115/31 58/116/29 57/114/29 61/113/31
f 60/119/30 64/120/32 63/118/32 59/117/30
f 66/123/33 62/124/31 61/122/31 65/121/33
f 64/127/32 68/128/34 67/126/34 63/125/32
f 70/131/35 66/132/33 65/130/33 69/129/35
f 68/135/34 72/136/36 71/134/36 67/133/34
f 74/139/37 70/140/35 69/138/35 73/137/37
f 72/143/36 76/144/38 75/142/38 71/141/36
f 78/147/39 74/148/37 73/146/37 77/145/39
f 76/151/38 80/152/40 79/150/40 75/149/38
f 82/155/3 78/156/39 77/154/39 81/153/3
f 80/159/40 84/160/2 83/158/2 79/157/40
f 86/163/4 82/164/3 81/162/3 85/161/4
f 84/167/2 88/168/1 87/166/1 83/165/2
f 90/171/6 86/172/4 85/170/4 89/169/6
f 88/175/1 92/176/5 91/174/5 87/173/1
f 94/179/8 90/180/6 89/178/6 93/177/8
f 92/183/5 96/184/7 95/182/7 91/181/5
f 98/187/10 94/188/8 93/186/8 97/185/10
f 96/191/7 100/192/9 99/190/9 95/189/7
f 102/195/12 98/196/10 97/194/10 101/193/12
f 100/199/9 104/200/11 103/198/11 99/197/9
f 106/203/14 102/204/12 101/202/12 105/201/14
f 104/207/11 108/208/13 107/206/13 103/205/11
f 110/211/16 106/212/14 105/210/14 109/209/16
f 108/215/13 112/216/15 111/214/15 107/213/13
f 114/219/18 110/220/16 109/218/16 113/217/18
f 112/223/15 116/224/17 115/222/17 111/221/15
f 118/227/20 114/228/18 113/226/18 117/225/20
f 116/231/17 120/232/19 119/230/19 115/229/17
f 122/235/22 118/236/20 117/234/20 121/233/22
f 120/239/19 124/240/21 123/238/21 119/237/19
f 126/242/24 122/155/22 121/153/22 125/241/24
f 124/245/21 128/246/23 127/244/23 123/243/21
f 130/249/26 126/250/24 125/248/24 129/247/26
f 128/253/23 132/254/25 131/252/25 127/251/23
f 134/257/28 130/258/26 129/256/26 133/255/28
f 132/261/25 136/262/27 135/260/27 131/259/25
f 138/265/30 134/266/28 133/264/28 137/263/30
f 136/269/27 140/270/29 139/268/29 135/267/27
f 142/273/32 138/274/30 137/272/30 141/271/32
f 140/277/29 144/278/31 143/276/31 139/275/29
f 146/281/34 142/282/32 141/280/32 145/279/34
f 144/285/31 148/286/33 147/284/33 143/283/31
f 150/289/36 146/290/34 145/288/34 149/287/36
f 148/293/33 152/294/35 151/292/35 147/291/33
f 154/297/38 150/298/36 149/296/36 153/295/38
f 152/301/35 156/302/37 155/300/37 151/299/35
f 158/305/40 154/306/38 153/304/38 157/303/40
f 156/309/37 160/310/39 159/308/39 155/307/37
f 4/312/2 158/83/40 157/81/40 2/311/2
f 160/315/39 7/316/3 5/314/3 159/313/39
f 5/319/41 6/320/41 1/318/41 2/317/41
f 8/323/42 7/324/42 4/322/42 3/321/42
f 6/320/41 11/326/41 9/325/41 1/318/41
f 12/328/42 8/323/42 3/321/42 10/327/42
f 11/326/41 15/330/41 13/329/41 9/325/41
f 16/332/42 12/328/42 10/327/42 14/331/42
f 15/330/41 19/334/41 17/333/41 13/329/41
f 20/336/42 16/332/42 14/331/42 18/335/42
f 19/334/41 23/338/41 21/337/41 17/333/41
f 24/340/42 20/336/42 18/335/42 22/339/42
f 23/338/41 27/342/41 25/341/41 21/337/41
f 28/344/42 24/340/42 22/339/42 26/343/42
f 27/342/41 31/346/41 29/345/41 25/341/41
f 32/348/42 28/344/42 26/343/42 30/347/42
f 31/346/41 35/350/41 33/349/41 29/345/41
f 36/352/42 32/348/42 30/347/42 34/351/42
f 35/350/41 39/354/41 37/353/41 33/349/41
f 40/356/42 36/352/42 34/351/42 38/355/42
f 39/354/41 43/358/41 41/357/41 37/353/41
f 44/360/42 40/356/42 38/355/42 42/359/42
f 43/358/41 47/362/41 45/361/41 41/357/41
f 48/364/42 44/360/42 42/359/42 46/363/42
f 47/362/41 51/366/41 49/365/41 45/361/41
f 52/368/42 48/364/42 46/363/42 50/367/42
f 51/366/41 55/370/41 53/369/41 49/365/41
f 56/372/42 52/368/42 50/367/42 54/371/42
f 55/370/41 59/374/41 57/373/41 53/369/41
f 60/376/42 56/372/42 54/371/42 58/375/42
f 59/374/41 63/378/41 61/377/41 57/373/41
f 64/380/42 60/376/42 58/375/42 62/379/42
f 63/378/41 67/382/41 65/381/41 61/377/41
f 68/384/42 64/380/42 62/379/42 66/383/42
f 67/382/41 71/386/41 69/385/41 65/381/41
f 72/388/42 68/384/42 66/383/42 70/387/42
f 71/386/41 75/390/41 73/389/41 69/385/41
f 76/392/42 72/388/42 70/387/42 74/391/42
f 75/390/41 79/394/41 77/393/41 73/389/41
f 80/396/42 76/392/42 74/391/42 78/395/42
f 79/394/41 83/398/41 81/397/41 77/393/41
f 84/400/42 80/396/42 78/395/42 82/399/42
f 83/398/41 87/402/41 85/401/41 81/397/41
f 88/404/42 84/400/42 82/399/42 86/403/42
f 87/402/41 91/406/41 89/405/41 85/401/41
f 92/408/42 88/404/42 86/403/42 90/407/42
f 91/406/41 95/410/41 93/409/41 89/405/41
f 96/412/42 92/408/42 90/407/42 94/411/42
f 95/410/41 99/414/41 97/413/41 93/409/41
f 100/416/42 96/412/42 94/411/42 98/415/42
f 99/414/41 103/418/41 101/417/41 97/413/41
f 104/420/42 100/416/42 98/415/42 102/419/42
f 103/418/41 107/422/41 105/421/41 101/417/41
f 108/424/42 104/420/42 102/419/42 106/423/42
f 107/422/41 111/426/41 109/425/41 105/421/41
f 112/428/42 108/424/42 106/423/42 110/427/42
f 111/426/41 115/430/41 113/429/41 109/425/41
f 116/432/42 112/428/42 110/427/42 114/431/42
f 115/430/41 119/434/41 117/433/41 113/429/41
f 120/436/42 116/432/42 114/431/42 118/435/42
f 119/434/41 123/438/41 121/437/41 117/433/41
f 124/440/42 120/436/42 118/435/42 122/439/42
f 123/438/41 127/442/41 125/441/41 121/437/41
f 128/444/42 124/440/42 122/439/42 126/443/42
f 127/442/41 131/446/41 129/445/41 125/441/41
f 132/448/42 128/444/42 126/443/42 130/447/42
f 131/446/41 135/450/41 133/449/41 129/445/41
f 136/452/42 132/448/42 130/447/42 134/451/42
f 135/450/41 139/454/41 137/453/41 133/449/41
f 140/456/42 136/452/42 134/451/42 138/455/42
f 139/454/41 143/458/41 141/457/41 137/453/41
f 144/460/42 140/456/42 138/455/42 142/459/42
f 143/458/41 147/462/41 145/461/41 141/457/41
f 148/464/42 144/460/42 142/459/42 146/463/42
f 147/462/41 151/466/41 149/465/41 145/461/41
f 152/468/42 148/464/42 146/463/42 150/467/42
f 151/466/41 155/470/41 153/469/41 149/465/41
f 156/472/42 152/468/42 150/467/42 154/471/42
f 155/470/41 159/474/41 157/473/41 153/469/41
f 160/476/42 156/472/42 154/471/42 158/475/42
f 159/474/41 5/319/41 2/317/41 157/473/41
f 7/324/42 160/476/42 158/475/42 4/322/42

